<svg width="70" height="18" viewBox="0 0 70 18" fill="none" xmlns="http://www.w3.org/2000/svg">
<path fill-rule="evenodd" clip-rule="evenodd" d="M8.40005 0.00146484H2.95538C2.58279 0.00146484 2.26592 0.262762 2.20782 0.617558L0.00571159 14.0898C-0.0380571 14.3558 0.175299 14.5954 0.454748 14.5954H3.05408C3.42667 14.5954 3.74355 14.3341 3.80165 13.9786L4.39558 10.3449C4.45287 9.98908 4.77053 9.72813 5.14234 9.72813H6.86593C10.4525 9.72813 12.5223 8.05334 13.0632 4.73468C13.3067 3.28279 13.0735 2.14197 12.3687 1.34279C11.595 0.465754 10.2223 0.00146484 8.40005 0.00146484ZM9.02821 4.92204C8.73052 6.80729 7.23775 6.80729 5.79438 6.80729H4.97276L5.54915 3.28635C5.58338 3.07375 5.77444 2.91698 5.99738 2.91698H6.37394C7.35715 2.91698 8.28473 2.91697 8.76405 3.4577C9.04958 3.7805 9.13726 4.25973 9.02821 4.92204ZM24.6755 4.8616H22.0682C21.846 4.8616 21.6541 5.01838 21.6198 5.23133L21.5045 5.93488L21.3221 5.67997C20.7577 4.88933 19.4992 4.62519 18.2428 4.62519C15.3614 4.62519 12.9007 6.73086 12.4214 9.68476C12.1723 11.158 12.5264 12.5669 13.3926 13.5495C14.1872 14.4528 15.3242 14.8293 16.6767 14.8293C18.9981 14.8293 20.2857 13.3888 20.2857 13.3888L20.1693 14.0881C20.1255 14.3554 20.3388 14.595 20.6166 14.595H22.9653C23.3389 14.595 23.6539 14.3337 23.7128 13.9782L25.122 5.36713C25.1666 5.10228 24.954 4.8616 24.6755 4.8616ZM21.041 9.75835C20.7894 11.1957 19.6071 12.1605 18.0995 12.1605C17.3424 12.1605 16.7371 11.9262 16.3488 11.4822C15.9634 11.0414 15.8168 10.4136 15.9395 9.71463C16.1745 8.2894 17.3767 7.29327 18.8614 7.29327C19.6016 7.29327 20.2036 7.53039 20.6 7.97833C20.9972 8.43089 21.1549 9.06227 21.041 9.75835ZM35.9415 4.86125H38.5617C38.9287 4.86125 39.1427 5.25835 38.9342 5.54879L30.2199 17.6865C30.0788 17.8831 29.8463 18.0001 29.598 18.0001H26.9811C26.6127 18.0001 26.3975 17.5998 26.6108 17.3086L29.3243 13.6128L26.4384 5.44036C26.3386 5.15631 26.5559 4.86125 26.8691 4.86125H29.4436C29.7782 4.86125 30.0733 5.07313 30.1698 5.38206L31.7013 10.3179L35.3152 5.18156C35.4567 4.98105 35.6917 4.86125 35.9415 4.86125Z" fill="#8F8F8F"/>
<path fill-rule="evenodd" clip-rule="evenodd" d="M64.3491 14.0891L66.5836 0.370439C66.6178 0.157491 66.809 0.000711014 67.0312 0H69.5468C69.8246 0 70.0379 0.240322 69.994 0.506241L67.7905 13.9778C67.733 14.3333 67.4162 14.5946 67.043 14.5946H64.7963C64.5185 14.5946 64.3052 14.355 64.3491 14.0891ZM47.2362 0.000711979H41.7905C41.4188 0.000711979 41.1019 0.262009 41.0437 0.616805L38.8417 14.0891C38.7978 14.355 39.0111 14.5946 39.2893 14.5946H42.0834C42.3432 14.5946 42.5653 14.4119 42.6058 14.163L43.2307 10.3442C43.2882 9.98832 43.6057 9.72738 43.9775 9.72738H45.7002C49.2876 9.72738 51.357 8.05259 51.8982 4.73393C52.1425 3.28204 51.9078 2.14122 51.2034 1.34204C50.43 0.465001 49.0584 0.000711979 47.2362 0.000711979ZM47.8643 4.92128C47.5674 6.80654 46.0745 6.80654 44.6303 6.80654H43.8095L44.3868 3.28559C44.4211 3.073 44.6104 2.91622 44.8341 2.91622H45.2106C46.1932 2.91622 47.1216 2.91622 47.6006 3.45695C47.8865 3.77975 47.9734 4.25897 47.8643 4.92128ZM63.5102 4.86085H60.9047C60.6807 4.86085 60.4906 5.01762 60.457 5.23057L60.3417 5.93412L60.1586 5.67922C59.5942 4.88857 58.3364 4.62443 57.0801 4.62443C54.1986 4.62443 51.7387 6.7301 51.2594 9.68401C51.011 11.1572 51.3636 12.5661 52.2298 13.5487C53.026 14.4521 54.1614 14.8285 55.5139 14.8285C57.8353 14.8285 59.1226 13.388 59.1226 13.388L59.0066 14.0873C58.9627 14.3547 59.176 14.5943 59.4557 14.5943H61.8033C62.175 14.5943 62.4918 14.333 62.5501 13.9775L63.96 5.36638C64.0031 5.10153 63.7898 4.86085 63.5102 4.86085ZM59.876 9.7576C59.6259 11.1949 58.4421 12.1598 56.9342 12.1598C56.1785 12.1598 55.5721 11.9255 55.1834 11.4815C54.7981 11.0406 54.6533 10.4128 54.7745 9.71387C55.0106 8.28865 56.2113 7.29251 57.6961 7.29251C58.4366 7.29251 59.0383 7.52963 59.435 7.97757C59.8337 8.43013 59.9914 9.06151 59.876 9.7576Z" fill="white"/>
</svg>
