<svg width="42" height="14" viewBox="0 0 42 14" fill="none" xmlns="http://www.w3.org/2000/svg">
<path d="M18.1991 13.798H14.7969L16.9249 0.245605H20.3269L18.1991 13.798Z" fill="white"/>
<path d="M30.5339 0.576978C29.8628 0.302765 28.7985 0 27.4824 0C24.1225 0 21.7566 1.84533 21.7421 4.4836C21.7142 6.43011 23.436 7.51125 24.7239 8.16028C26.0401 8.82349 26.4876 9.25636 26.4876 9.84752C26.4742 10.7554 25.4239 11.1739 24.4444 11.1739C23.0861 11.1739 22.3583 10.9582 21.2522 10.4531L20.8042 10.2365L20.3281 13.2787C21.1261 13.6532 22.5962 13.9854 24.1225 14C27.6924 14 30.0165 12.1832 30.044 9.37172C30.0576 7.82896 29.1484 6.64684 27.1882 5.68086C25.9983 5.06077 25.2695 4.64265 25.2695 4.00818C25.2835 3.4314 25.8859 2.84062 27.2292 2.84062C28.3352 2.81169 29.1479 3.08552 29.7635 3.35954L30.0712 3.50345L30.5339 0.576978Z" fill="white"/>
<path d="M35.0529 8.99685C35.3331 8.21828 36.4112 5.20501 36.4112 5.20501C36.3971 5.23394 36.6908 4.41207 36.8588 3.90753L37.0966 5.07528C37.0966 5.07528 37.7409 8.31927 37.8808 8.99685C37.3491 8.99685 35.7249 8.99685 35.0529 8.99685ZM39.2525 0.245605H36.6209C35.8093 0.245605 35.1928 0.4905 34.8427 1.37005L29.7891 13.7978H33.3589C33.3589 13.7978 33.9467 12.1251 34.073 11.7648C34.4646 11.7648 37.9374 11.7648 38.4412 11.7648C38.5388 12.2406 38.8471 13.7978 38.8471 13.7978H41.9973L39.2525 0.245605V0.245605Z" fill="white"/>
<path d="M11.9584 0.245605L8.62651 9.48702L8.26242 7.61275C7.64641 5.45009 5.7145 3.10041 3.55859 1.93208L6.61051 13.7836H10.2083L15.556 0.245605H11.9584V0.245605Z" fill="white"/>
<path d="M5.52987 0.245605H0.0559998L0 0.519466C4.26996 1.64423 7.09787 4.35544 8.25973 7.61418L7.06978 1.38494C6.87387 0.519275 6.27182 0.274161 5.52987 0.245605Z" fill="white"/>
</svg>
