<svg width="40" height="24" viewBox="0 0 40 24" fill="none" xmlns="http://www.w3.org/2000/svg">
<path fill-rule="evenodd" clip-rule="evenodd" d="M19.9964 21.1337C17.8784 22.9211 15.1312 24 12.1292 24C5.43043 24 0 18.6274 0 12C0 5.37258 5.43043 0 12.1292 0C15.1312 0 17.8784 1.07895 19.9964 2.86626C22.1143 1.07895 24.8615 0 27.8635 0C34.5623 0 39.9927 5.37258 39.9927 12C39.9927 18.6274 34.5623 24 27.8635 24C24.8615 24 22.1143 22.9211 19.9964 21.1337Z" fill="white"/>
<path fill-rule="evenodd" clip-rule="evenodd" d="M20 21.1354C22.6093 18.9343 24.264 15.6583 24.264 12C24.264 8.34167 22.6093 5.06569 20 2.86465C22.1177 1.0783 24.8642 0 27.8652 0C34.564 0 39.9944 5.37258 39.9944 12C39.9944 18.6274 34.564 24 27.8652 24C24.8642 24 22.1177 22.9217 20 21.1354Z" fill="#8F8F8F"/>
<path fill-rule="evenodd" clip-rule="evenodd" d="M19.9965 21.1336C17.3883 18.9326 15.7344 15.6573 15.7344 11.9998C15.7344 8.34244 17.3882 5.06723 19.9963 2.86621C22.6045 5.06724 24.2584 8.34255 24.2584 12C24.2584 15.6574 22.6046 18.9326 19.9965 21.1336Z" fill="#2E2E2E"/>
</svg>
