<svg width="178" height="27" viewBox="0 0 178 27" fill="none" xmlns="http://www.w3.org/2000/svg">
<g clip-path="url(#clip0_7331_30813)">
<path d="M8.52707 8.67273C11.0749 8.67273 13.1913 9.98182 14.1981 11.3932V9.02045H18.0815V26.6318H15.2871C15.1412 26.6324 14.9967 26.6042 14.8618 26.549C14.7269 26.4937 14.6043 26.4123 14.5012 26.3096C14.398 26.2069 14.3163 26.0849 14.2608 25.9507C14.2052 25.8164 14.1769 25.6725 14.1775 25.5273V24.2591C13.1913 25.6909 11.0749 27 8.52707 27C3.67794 27 0 22.8682 0 17.8364C0 12.8045 3.67794 8.67273 8.52707 8.67273ZM9.22567 12.1909C6.08196 12.1909 3.94505 14.6659 3.94505 17.8364C3.94505 21.0068 6.06141 23.4818 9.22567 23.4818C12.3694 23.4818 14.5063 21.0068 14.5063 17.8364C14.5063 14.6659 12.3899 12.1909 9.22567 12.1909ZM22.4991 9.02045H26.4031V11.4136C27.4715 9.65455 29.4852 8.67273 31.7864 8.67273C35.8959 8.67273 38.5465 11.5568 38.5465 16.0364V26.6318H35.7521C35.6062 26.6324 35.4616 26.6042 35.3267 26.549C35.1919 26.4937 35.0693 26.4123 34.9661 26.3096C34.863 26.2069 34.7813 26.0849 34.7257 25.9507C34.6702 25.8164 34.6419 25.6725 34.6425 25.5273V16.6705C34.6425 13.8886 33.2248 12.1909 30.9646 12.1909C28.3756 12.1909 26.4031 14.1955 26.4031 17.9591V26.6318H23.6087C23.4628 26.6324 23.3183 26.6042 23.1834 26.549C23.0485 26.4937 22.9259 26.4123 22.8228 26.3096C22.7196 26.2069 22.6379 26.0849 22.5824 25.9507C22.5268 25.8164 22.4985 25.6725 22.4991 25.5273V9.02045ZM50.1556 8.67273C52.7035 8.67273 54.8198 9.98182 55.8266 11.3932V0.225H59.71V26.6523H56.9156C56.7697 26.6529 56.6252 26.6247 56.4903 26.5694C56.3554 26.5141 56.2329 26.4328 56.1297 26.3301C56.0266 26.2274 55.9449 26.1054 55.8893 25.9711C55.8338 25.8368 55.8055 25.6929 55.8061 25.5477V24.2795C54.8198 25.6909 52.6829 27 50.1351 27C45.2859 27 41.608 22.8682 41.608 17.8364C41.6285 12.8045 45.3065 8.67273 50.1556 8.67273ZM50.8542 12.1909C47.7105 12.1909 45.5736 14.6659 45.5736 17.8364C45.5736 21.0068 47.6899 23.4818 50.8542 23.4818C53.9979 23.4818 56.1348 21.0068 56.1348 17.8364C56.1348 14.6659 53.9979 12.1909 50.8542 12.1909ZM64.1277 9.02045H68.0111V12.15C68.3517 11.1872 68.9824 10.3523 69.8171 9.75933C70.6518 9.16633 71.6499 8.84403 72.6753 8.83636C73.1856 8.83518 73.6948 8.88313 74.1958 8.97955V12.9682C73.5666 12.757 72.9078 12.6465 72.2438 12.6409C70.0042 12.6409 67.9905 14.5023 67.9905 18.0409V26.6318H65.1961C65.0503 26.6324 64.9057 26.6042 64.7708 26.549C64.6359 26.4937 64.5134 26.4123 64.4102 26.3096C64.3071 26.2069 64.2254 26.0849 64.1698 25.9507C64.1143 25.8164 64.086 25.6725 64.0866 25.5273V9.02045H64.1277ZM84.7159 27C79.4764 27 75.4492 22.95 75.4492 17.8364C75.4492 12.7227 79.4764 8.67273 84.7159 8.67273C89.9555 8.67273 93.9827 12.7227 93.9827 17.8364C93.9827 22.95 89.9555 27 84.7159 27ZM84.7159 23.4C87.8391 23.4 90.0171 20.9659 90.0171 17.8364C90.0171 14.7068 87.8185 12.2727 84.7159 12.2727C81.5722 12.2727 79.3737 14.7068 79.3737 17.8364C79.3737 20.9659 81.5722 23.4 84.7159 23.4ZM99.0784 5.175C98.3877 5.17055 97.7266 4.89543 97.2381 4.40923C96.7497 3.92302 96.4734 3.26486 96.4689 2.57727C96.4811 1.89401 96.7606 1.24244 97.2479 0.761137C97.7353 0.279833 98.392 0.00676327 99.0784 0C99.7677 1.02259e-08 100.429 0.272611 100.916 0.757861C101.404 1.24311 101.678 1.90125 101.678 2.5875C101.678 3.27375 101.404 3.93189 100.916 4.41714C100.429 4.90239 99.7677 5.175 99.0784 5.175ZM97.147 9.02045H101.03V26.6318H98.2565C98.1106 26.6324 97.9661 26.6042 97.8312 26.549C97.6963 26.4937 97.5738 26.4123 97.4706 26.3096C97.3675 26.2069 97.2857 26.0849 97.2302 25.9507C97.1747 25.8164 97.1464 25.6725 97.147 25.5273V9.02045ZM112.763 8.67273C115.311 8.67273 117.427 9.98182 118.434 11.3932V0.225H122.317V26.6523H119.523C119.377 26.6529 119.232 26.6247 119.097 26.5694C118.963 26.5141 118.84 26.4328 118.737 26.3301C118.634 26.2274 118.552 26.1054 118.497 25.9711C118.441 25.8368 118.413 25.6929 118.413 25.5477V24.2795C117.427 25.6909 115.29 27 112.742 27C107.893 27 104.215 22.8682 104.215 17.8364C104.236 12.8045 107.914 8.67273 112.763 8.67273ZM113.482 12.1909C110.338 12.1909 108.201 14.6659 108.201 17.8364C108.201 21.0068 110.318 23.4818 113.482 23.4818C116.626 23.4818 118.763 21.0068 118.763 17.8364C118.763 14.6659 116.626 12.1909 113.482 12.1909Z" fill="black"/>
<path d="M165.281 19.9841C164.891 19.9841 164.51 19.8689 164.185 19.6532C163.861 19.4374 163.608 19.1307 163.459 18.7719C163.31 18.4131 163.271 18.0183 163.347 17.6374C163.423 17.2565 163.611 16.9066 163.887 16.632C164.162 16.3574 164.514 16.1703 164.897 16.0946C165.279 16.0188 165.676 16.0577 166.036 16.2063C166.397 16.3549 166.705 16.6066 166.921 16.9295C167.138 17.2525 167.254 17.6321 167.254 18.0205C167.254 18.5413 167.046 19.0407 166.676 19.409C166.306 19.7772 165.804 19.9841 165.281 19.9841ZM143.563 19.9841C143.173 19.9841 142.791 19.8689 142.467 19.6532C142.143 19.4374 141.89 19.1307 141.741 18.7719C141.591 18.4131 141.552 18.0183 141.628 17.6374C141.704 17.2565 141.892 16.9066 142.168 16.632C142.444 16.3574 142.796 16.1703 143.178 16.0946C143.561 16.0188 143.957 16.0577 144.318 16.2063C144.678 16.3549 144.986 16.6066 145.203 16.9295C145.42 17.2525 145.536 17.6321 145.536 18.0205C145.536 18.5413 145.328 19.0407 144.958 19.409C144.588 19.7772 144.086 19.9841 143.563 19.9841ZM165.98 8.20229L169.925 1.43184C169.978 1.33913 170.013 1.23687 170.026 1.13093C170.039 1.02498 170.032 0.917444 170.003 0.814489C169.975 0.711533 169.926 0.61519 169.86 0.530993C169.794 0.446796 169.712 0.376404 169.619 0.323861C169.525 0.271318 169.422 0.23766 169.316 0.224819C169.209 0.211979 169.102 0.22021 168.998 0.249038C168.895 0.277867 168.798 0.326726 168.714 0.392808C168.63 0.458891 168.56 0.540894 168.507 0.634108L164.521 7.48638C161.355 6.04617 157.913 5.30645 154.432 5.3182C150.948 5.30971 147.501 6.04193 144.323 7.46593L140.337 0.613653C140.23 0.427599 140.054 0.291231 139.846 0.234373C139.639 0.177516 139.417 0.204796 139.229 0.310248C139.042 0.415699 138.904 0.59074 138.846 0.79709C138.788 1.00344 138.814 1.2243 138.919 1.41138L142.844 8.18183C139.451 10.0241 136.572 12.6799 134.47 15.9086C132.368 19.1373 131.107 22.837 130.803 26.6727H178C177.705 22.8397 176.451 19.1411 174.351 15.9148C172.251 12.6884 169.374 10.0369 165.98 8.20229Z" fill="#3DDC84"/>
</g>
<defs>
<clipPath id="clip0_7331_30813">
<rect width="178" height="27" fill="white"/>
</clipPath>
</defs>
</svg>
