<svg width="50" height="24" viewBox="0 0 50 24" fill="none" xmlns="http://www.w3.org/2000/svg">
<path d="M0.232442 23.6143H4.36718V6.5864H0.232442V23.6143ZM2.29152 4.35336C3.58674 4.35336 4.59966 3.38949 4.59966 2.18472C4.59966 0.963826 3.58674 0 2.29152 0C1.01292 0 0 0.963867 0 2.18472C0 3.38953 1.01292 4.35336 2.29152 4.35336ZM18.1336 0.0480741C11.1429 0.0480741 6.75885 4.6585 6.75885 12.0321C6.75885 19.4056 11.1424 24 18.1336 24C25.1077 24 29.4917 19.4056 29.4917 12.0321C29.4917 4.6585 25.1081 0.0480741 18.1336 0.0480741ZM18.1336 3.5822C22.4011 3.5822 25.1243 6.8593 25.1243 12.032C25.1243 17.1885 22.401 20.4657 18.1336 20.4657C13.8494 20.4657 11.1429 17.1886 11.1429 12.032C11.1429 6.85938 13.8495 3.5822 18.1336 3.5822ZM31.2359 17.0923C31.4185 21.3655 35.0385 23.9999 40.5514 23.9999C46.3467 23.9999 50 21.2369 50 16.8353C50 13.3815 47.9409 11.4377 43.0756 10.3615L40.3191 9.75106C37.38 9.07638 36.1678 8.17679 36.1678 6.63464C36.1678 4.70694 37.9944 3.42182 40.701 3.42182C43.4409 3.42182 45.3171 4.72302 45.5165 6.89166H49.6014C49.5018 2.81137 46.0147 0.0481975 40.7344 0.0481975C35.5201 0.0481975 31.8171 2.82728 31.8171 6.93978C31.8171 10.249 33.9094 12.3052 38.3262 13.2852L41.4314 13.9921C44.4536 14.6828 45.6823 15.6467 45.6823 17.3173C45.6823 19.245 43.6731 20.6265 40.784 20.6265C37.8614 20.6265 35.6531 19.229 35.3874 17.0924L31.2359 17.0923Z" fill="black"/>
</svg>
