<svg width="150" height="32" viewBox="0 0 150 32" fill="none" xmlns="http://www.w3.org/2000/svg">
<path d="M61.781 25.6309H58.7728V13.069C58.7728 12.0441 58.8334 10.7829 58.9503 9.29391H58.8983C58.7108 10.14 58.5463 10.7497 58.402 11.1187L52.9424 25.6309H50.8518L45.3792 11.2297C45.2263 10.8059 45.0618 10.1588 44.8916 9.29391H44.844C44.9089 10.0708 44.9435 11.3364 44.9435 13.0964V25.6309H42.1401V6.22224H46.4108L51.2183 19.1489C51.5833 20.1434 51.8228 20.8815 51.9368 21.3672H51.9974C52.3148 20.3467 52.5673 19.5885 52.7635 19.0941L57.6618 6.22224H61.781V25.6309ZM67.0819 8.86003C66.5986 8.86003 66.1859 8.69428 65.8411 8.36131C65.4934 8.02402 65.3231 7.60311 65.3231 7.08565C65.3231 6.57394 65.4934 6.14297 65.8411 5.80136C66.1859 5.45974 66.5986 5.28821 67.0819 5.28821C67.5826 5.28821 68.0096 5.45974 68.3574 5.80136C68.7065 6.14297 68.8811 6.57394 68.8811 7.08565C68.8811 7.57573 68.7065 7.99086 68.3574 8.33824C68.0096 8.68418 67.5826 8.86003 67.0819 8.86003ZM68.5492 25.6309H65.5886V11.7717H68.5492V25.6309ZM81.4003 24.9938C80.3557 25.6367 79.1149 25.9552 77.6865 25.9552C75.7489 25.9552 74.1863 25.3124 72.9931 24.0281C71.8042 22.7438 71.2083 21.076 71.2083 19.0249C71.2083 16.7417 71.8475 14.9082 73.1287 13.5216C74.4085 12.1407 76.1197 11.4474 78.2622 11.4474C79.454 11.4474 80.5043 11.6694 81.4133 12.1076V15.0322C80.5043 14.3115 79.5333 13.9511 78.5046 13.9511C77.2551 13.9511 76.2279 14.3994 75.4314 15.296C74.6307 16.1969 74.2296 17.3702 74.2296 18.8217C74.2296 20.2588 74.6076 21.3903 75.3622 22.222C76.1153 23.0493 77.121 23.4645 78.3877 23.4645C79.454 23.4645 80.4553 23.0623 81.4003 22.2638V24.9938ZM91.5476 14.7598C91.1912 14.4643 90.6732 14.3158 90.0023 14.3158C89.1265 14.3158 88.3965 14.7367 87.8078 15.5727C87.2206 16.4145 86.9277 17.5561 86.9277 18.9975V25.6309H83.9671V11.7717H86.9277V14.6257H86.9797C87.2682 13.6513 87.7126 12.8931 88.3128 12.3439C88.913 11.7991 89.5796 11.5267 90.3197 11.5267C90.8565 11.5267 91.2648 11.6131 91.5476 11.7847V14.7598ZM98.8337 25.9552C96.8225 25.9552 95.2123 25.3081 94.0104 24.0151C92.8043 22.7207 92.2026 21.0025 92.2026 18.8635C92.2026 16.5341 92.8302 14.718 94.084 13.4063C95.3378 12.0989 97.0274 11.4474 99.1569 11.4474C101.199 11.4474 102.788 12.0802 103.924 13.3558C105.065 14.6257 105.635 16.3914 105.635 18.6458C105.635 20.8584 105.022 22.6285 103.794 23.9589C102.562 25.2893 100.911 25.9552 98.8337 25.9552ZM98.978 13.9511C97.8195 13.9511 96.9062 14.3764 96.2353 15.2369C95.5643 16.096 95.2253 17.2736 95.2253 18.7842C95.2253 20.2357 95.5687 21.3816 96.2482 22.2119C96.9278 23.0493 97.8382 23.4645 98.978 23.4645C100.141 23.4645 101.037 23.0537 101.66 22.2364C102.288 21.4133 102.601 20.2443 102.601 18.7294C102.601 17.2044 102.288 16.0268 101.66 15.1951C101.037 14.3634 100.141 13.9511 98.978 13.9511ZM107.466 25.1971V22.2868C108.573 23.1834 109.792 23.6274 111.128 23.6274C112.914 23.6274 113.806 23.0667 113.806 21.9496C113.806 21.6353 113.728 21.3672 113.575 21.1452C113.423 20.9233 113.219 20.7243 112.957 20.5543C112.701 20.3827 112.39 20.2299 112.038 20.0959C111.686 19.9575 111.294 19.8062 110.858 19.6346C110.323 19.4083 109.839 19.1719 109.412 18.9183C108.981 18.6646 108.625 18.3777 108.342 18.0592C108.055 17.7363 107.841 17.3759 107.697 16.968C107.55 16.5615 107.479 16.0916 107.479 15.5453C107.479 14.8808 107.628 14.2884 107.923 13.781C108.224 13.2722 108.625 12.8427 109.125 12.4967C109.626 12.1494 110.197 11.887 110.832 11.7112C111.473 11.5353 112.131 11.4474 112.809 11.4474C114.019 11.4474 115.098 11.642 116.054 12.0297V14.7742C115.135 14.1082 114.076 13.7753 112.888 13.7753C112.513 13.7753 112.174 13.8127 111.872 13.8963C111.572 13.9756 111.315 14.0895 111.102 14.2337C110.888 14.3764 110.724 14.5522 110.606 14.7554C110.484 14.9587 110.427 15.1807 110.427 15.4257C110.427 15.7212 110.484 15.9749 110.606 16.1839C110.724 16.3914 110.897 16.5759 111.132 16.7331C111.367 16.8902 111.646 17.0329 111.978 17.1626C112.304 17.2967 112.679 17.4408 113.105 17.5921C113.667 17.8329 114.168 18.0822 114.617 18.3359C115.064 18.591 115.443 18.8764 115.756 19.195C116.07 19.515 116.315 19.884 116.484 20.3049C116.654 20.7243 116.74 21.2231 116.74 21.8011C116.74 22.5045 116.589 23.1185 116.279 23.6403C115.974 24.1679 115.565 24.596 115.055 24.9434C114.546 25.285 113.959 25.5387 113.288 25.7059C112.623 25.8717 111.917 25.9552 111.176 25.9552C109.749 25.9552 108.512 25.7059 107.466 25.1971ZM124.972 25.9552C122.96 25.9552 121.35 25.3081 120.148 24.0151C118.942 22.7207 118.34 21.0025 118.34 18.8635C118.34 16.5341 118.968 14.718 120.222 13.4063C121.476 12.0989 123.165 11.4474 125.295 11.4474C127.336 11.4474 128.926 12.0802 130.062 13.3558C131.203 14.6257 131.773 16.3914 131.773 18.6458C131.773 20.8584 131.16 22.6285 129.932 23.9589C128.7 25.2893 127.049 25.9552 124.972 25.9552ZM125.116 13.9511C123.957 13.9511 123.044 14.3764 122.373 15.2369C121.702 16.096 121.363 17.2736 121.363 18.7842C121.363 20.2357 121.707 21.3816 122.386 22.2119C123.066 23.0493 123.975 23.4645 125.116 23.4645C126.279 23.4645 127.175 23.0537 127.798 22.2364C128.426 21.4133 128.739 20.2443 128.739 18.7294C128.739 17.2044 128.426 16.0268 127.798 15.1951C127.175 14.3634 126.279 13.9511 125.116 13.9511ZM141.372 7.66799C140.971 7.42871 140.515 7.3033 140.004 7.3033C138.569 7.3033 137.849 8.16673 137.849 9.89066V11.7717H143.917V8.56454L146.878 7.66799V11.7717H150V14.2337H146.878V21.164C146.878 21.9856 147.018 22.5722 147.296 22.9239C147.579 23.2756 148.045 23.4515 148.703 23.4515C149.202 23.4515 149.633 23.2987 150 22.9931V25.4839C149.424 25.7895 148.662 25.9408 147.717 25.9408C145.184 25.9408 143.917 24.6522 143.917 22.0692V14.2337H137.863V25.6309H134.902V14.2337H132.672V11.7717H134.902V9.52598C134.902 8.0615 135.354 6.9098 136.256 6.06513C137.158 5.21902 138.284 4.79956 139.635 4.79956C140.366 4.79956 140.945 4.88605 141.372 5.05758V7.66799Z" fill="#020202"/>
<rect width="15.3993" height="15.3845" fill="#F25022"/>
<rect x="16.6309" width="15.3993" height="15.3845" fill="#7FBA00"/>
<rect y="16.6152" width="15.3993" height="15.3845" fill="#00A4EF"/>
<rect x="16.6309" y="16.6152" width="15.3993" height="15.3845" fill="#FFB900"/>
</svg>
