<svg width="108" height="24" viewBox="0 0 108 24" fill="none" xmlns="http://www.w3.org/2000/svg">
<path d="M0 23.6134H4.23493V13.1667C4.23493 11.1064 5.66353 9.60944 7.70445 9.60944C9.67728 9.60944 10.9019 10.7845 10.9019 12.6838V23.6131H15.0176V13.0699C15.0176 11.0257 16.4122 9.60923 18.4531 9.60923C20.528 9.60923 21.6845 10.8004 21.6845 12.8929V23.6132H25.9194V11.9114C25.9194 8.49896 23.5893 6.22938 20.0346 6.22938C17.4325 6.22938 15.2898 7.54927 14.4221 9.6579H14.32C13.6567 7.46879 11.8369 6.22938 9.28605 6.22938C6.83699 6.22938 4.93217 7.5332 4.14978 9.51305H4.06474V6.55132H0V23.6134ZM35.189 20.861C33.3522 20.861 32.1277 19.9757 32.1277 18.5753C32.1277 17.2232 33.3012 16.354 35.3421 16.2252L39.5089 15.9838V17.2876C39.5089 19.3479 37.5871 20.861 35.189 20.861ZM33.9135 23.8871C36.2265 23.8871 38.4885 22.7443 39.5261 20.8932H39.6111V23.6135H43.6929V11.863C43.6929 8.43447 40.7846 6.19707 36.3117 6.19707C31.7197 6.19707 28.8457 8.48276 28.6585 11.6697H32.5872C32.8593 10.2532 34.1348 9.33574 36.1417 9.33574C38.2336 9.33574 39.5092 10.3659 39.5092 12.1526V13.3759L34.7469 13.6335C30.3591 13.891 27.893 15.7099 27.893 18.7361C27.893 21.8105 30.427 23.8871 33.9135 23.8871ZM62.2825 12.6356C61.9934 9.04614 59.0511 6.19707 54.2892 6.19707C49.051 6.19707 45.6494 9.62559 45.6494 15.0821C45.6494 20.6194 49.0508 23.951 54.3232 23.951C58.8473 23.951 61.9594 21.4399 62.2995 17.6249H58.3027C57.9116 19.5565 56.517 20.7154 54.3741 20.7154C51.6869 20.7154 49.9523 18.6551 49.9523 15.0816C49.9523 11.5726 51.67 9.44787 54.3401 9.44787C56.6021 9.44787 57.9456 10.816 58.2858 12.635H62.2825L62.2825 12.6356ZM75.362 0C68.202 0 63.7119 4.61968 63.7119 12.008C63.7119 19.3964 68.2016 24 75.362 24C82.505 24 86.9951 19.3964 86.9951 12.008C86.9951 4.61968 82.5054 0 75.362 0ZM75.362 3.54122C79.7329 3.54122 82.522 6.8249 82.522 12.008C82.522 17.1749 79.7328 20.4586 75.362 20.4586C70.9742 20.4586 68.202 17.1749 68.202 12.008C68.202 6.82498 70.9742 3.54122 75.362 3.54122ZM88.7815 17.0784C88.9686 21.3602 92.6762 23.9999 98.3226 23.9999C104.258 23.9999 108 21.2313 108 16.8209C108 13.3602 105.891 11.4125 100.908 10.3341L98.0847 9.72247C95.0744 9.04643 93.8329 8.14503 93.8329 6.59978C93.8329 4.66822 95.7037 3.38051 98.4759 3.38051C101.282 3.38051 103.204 4.68433 103.408 6.85733H107.592C107.49 2.76884 103.918 0.00012362 98.51 0.00012362C93.1695 0.00012362 89.3769 2.78479 89.3769 6.90554C89.3769 10.2214 91.5198 12.2818 96.0435 13.2637L99.2239 13.972C102.319 14.6641 103.578 15.6299 103.578 17.3039C103.578 19.2355 101.52 20.6198 98.5608 20.6198C95.5675 20.6198 93.3057 19.2194 93.0336 17.0786H88.7817L88.7815 17.0784Z" fill="black"/>
</svg>
